PathFileType	4	(X/Y/Z)	T1_P1_NoVision_Movement_3_0-681.trc
DataRate	CameraRate	NumFrames	NumMarkers	Units	OrigDataRate	OrigDataStartFrame	OrigNumFrames
60	60	4	27	m	60	170	681
Frame#	Time	RHip			RKnee			RAnkle			RBigToe			RSmallToe			RHeel			LHip			LKnee			LAnkle			LBigToe			LSmallToe			LHeel			Neck			Head			Nose			RShoulder			RElbow			RWrist			RThumb			RIndex			RPinky			LShoulder			LElbow			LWrist			LThumb			LIndex			LPinky		
		X1	Y1	Z1	X2	Y2	Z2	X3	Y3	Z3	X4	Y4	Z4	X5	Y5	Z5	X6	Y6	Z6	X7	Y7	Z7	X8	Y8	Z8	X9	Y9	Z9	X10	Y10	Z10	X11	Y11	Z11	X12	Y12	Z12	X13	Y13	Z13	X14	Y14	Z14	X15	Y15	Z15	X16	Y16	Z16	X17	Y17	Z17	X18	Y18	Z18	X19	Y19	Z19	X20	Y20	Z20	X21	Y21	Z21	X22	Y22	Z22	X23	Y23	Z23	X24	Y24	Z24	X25	Y25	Z25	X26	Y26	Z26	X27	Y27	Z27
171	2.85	-82.13748453146225	3851.9925093480965	-589.7546572759928	255.447373841155	4016.3652079037092	-560.6046363945364	624.93608435766	4147.927888771538	-524.0818780605094	696.5051591417209	4095.5988555357635	-476.7826174333173	696.1113659115015	4068.0114395477676	-534.239496678773	651.6721884904981	4161.810445258904	-525.1912518222293	-116.50893298455182	3964.845760912784	-414.63809289031843	214.2462151577892	4029.233607910677	-376.7846332479646	572.4885009965764	4195.760711920241	-383.984819047816	673.4086848267367	4187.154234904331	-348.6745657233199	643.7723504473679	4249.746266889322	-338.0157294591027	610.9645190326954	4257.294306544946	-424.9997607995358	-694.6733222506335	3750.747667823893	-534.699997871804	-917.9178362108538	3560.9937542434322	-458.51601756362703	-779.5461525811152	3589.0676991483933	-436.79431965118016	-577.6357679953493	3712.811198807811	-676.4160876173763	-314.848213037828	3602.2763689616595	-670.6608116005835	-464.86525146384525	3544.9918734495855	-534.0970652849097	-558.2201565567669	3469.0852492531767	-443.8974474050388	-555.4747981011949	3448.0038404562324	-420.98809935853643	-532.6190975786313	3434.1065758538225	-419.27138699673066	-637.4345414979578	3887.8410817473696	-427.4287495847703	-406.6481602527693	4027.9486832312914	-364.3745576428329	-149.75923452214028	4028.59709538874	-277.164383794846	-18.466889282211863	4023.8426700348396	-279.49724746244846	-0.5812660241181905	3997.2523233193447	-231.60700137773065	-9.985160288991825	4021.3471009929713	-233.64768946857623
172	2.8666666666666667	-82.19034670363365	3851.9726988234647	-589.7388125919805	260.4828596817785	4016.349552191202	-560.1639789983287	625.3867400010819	4139.770367209588	-532.1551167612623	696.6095016720001	4095.6238251264454	-476.9901259228645	702.5172355924393	4067.8166913640653	-540.2735326372623	656.8457781247871	4184.122220930051	-540.7409773518784	-121.65029387540721	3961.0331025754053	-412.97429642972367	214.2806355288081	4029.3113274266975	-376.78471106659526	577.7856020872545	4195.300892525081	-383.4062500028879	672.6742932554023	4182.610687311073	-348.7034179402882	643.7640765220438	4249.441348235638	-338.00518410184947	616.6823506889876	4256.964631010051	-424.3929774764451	-694.7416076740029	3750.9425969549593	-534.8318786440107	-917.8215529806419	3560.865225207892	-458.4922437537271	-784.0783242326778	3587.7745293197727	-436.680592543166	-577.638998232665	3712.8503684270463	-676.4708611660042	-310.2110308183934	3603.9834722286796	-670.4237517551198	-460.4741728377037	3546.207064140532	-533.6764836457102	-558.2314764209428	3469.080172880054	-443.6631252062717	-555.4386206520045	3447.974343568553	-420.7282446763034	-532.0906683849443	3432.396054443161	-417.54012153092236	-637.4701545049692	3888.131939148604	-427.5641885219565	-406.61061261105783	4028.0258166922317	-364.4382757445618	-148.81037328588863	4001.077841654506	-272.4778015793875	-17.247022020901436	4044.501856664203	-293.2187921173775	-0.5283433781116391	3997.281989887432	-231.73980587756924	-9.97094172267911	4021.323674846438	-233.60762700057
173	2.8833333333333333	-82.15562128647476	3851.6605956578755	-589.6650461775752	259.64044483401545	4015.5038770713927	-553.7167119352924	629.6179138492258	4170.929459351396	-539.1778205457844	696.59005248764	4095.250812278378	-476.6889618956128	696.0834640137929	4067.885632926079	-534.2453798620368	661.3605715720216	4217.089580455121	-548.0331489439657	-121.64279354514446	3961.1844457286775	-413.05054152121556	214.21198716895657	4029.608418868554	-377.0200872812554	582.5910833042084	4217.842835086045	-398.0605503237097	672.5796761460754	4182.516411835172	-348.653485505819	643.8245197535479	4249.485673713661	-338.0104362026539	615.7143855855334	4279.711827342029	-439.3612174658138	-694.7176643423012	3750.8825449656574	-534.838672988841	-917.8254378254416	3560.9282121089796	-458.4482281163037	-784.0013257236409	3587.7693290559328	-436.6523470744834	-577.6509890466575	3712.787993814915	-676.4052123636134	-314.8839557488713	3602.2458126480465	-670.6488371479026	-464.3355391934378	3543.4878464207663	-538.7803291969661	-558.0790225440662	3468.994089001085	-444.0871433112513	-555.2200035796205	3447.715441975199	-421.18768495517594	-536.8051195475292	3431.493731593059	-418.4752907455879	-637.4677836796162	3888.132916304636	-427.6322385652195	-406.6543775546087	4028.0559288284767	-364.4718818375862	-148.7264571553828	4001.0562403841172	-272.4290719961505	-18.303011903028395	4023.245720913338	-279.2122100589103	-0.4897680133072548	3996.6325103112663	-231.31201332975806	-9.985016724829658	4021.339209352562	-233.56951202660477
174	2.9	-82.08706040663942	3851.750116756794	-589.715156472	260.67694280065865	4016.4125354944117	-560.3115912282199	629.6151764186988	4170.633042011015	-539.1290560106548	690.4769731398683	4092.2808556243945	-477.5468436163328	701.0694039848208	4067.525478182316	-533.7691082466861	661.3306696903784	4216.581104380202	-547.8986449995848	-116.4406576558145	3964.802851178583	-414.6978120279012	214.37814506977236	4029.6621673875024	-377.1115468649429	578.1002110450521	4195.545549397821	-383.57080578460375	672.6736837997666	4182.479542536412	-348.7898266977735	639.3852627071251	4218.135428819133	-332.8788139459969	611.0243149823308	4257.7366176818705	-425.1206203592962	-694.7299040410709	3750.938077578328	-534.8492879852973	-917.8130402281189	3560.922907664064	-458.47549853791486	-784.0032037451682	3587.780449497795	-436.7071291174686	-577.6383729762206	3712.786336091116	-676.524049896025	-314.87432066671863	3602.0843255813406	-670.5950848748789	-459.9187053427737	3544.3548471835625	-538.2733077186986	-558.4040155522431	3469.689260446464	-444.2905996344212	-555.6900818916264	3448.563585621754	-421.48367035678547	-536.9502945935516	3431.297235130224	-418.1150698714947	-632.4094313948701	3891.567072429139	-428.79635814420595	-406.6292414056997	4028.4354067468958	-364.5357946556385	-148.6914355207113	4001.2546014410404	-272.49103455716426	-18.450585086170204	4023.434742374778	-279.3759585095226	-0.5893087530091919	3996.733113819561	-231.42814288139556	-10.02575685436879	4021.086380184965	-233.51434934359662
